<?xml version="1.0" encoding="UTF-8" standalone="no"?>
<!-- Created with Inkscape (http://www.inkscape.org/) -->

<svg
   width="207.69301mm"
   height="207.69273mm"
   viewBox="0 0 207.69301 207.69273"
   version="1.1"
   id="svg1"
   inkscape:export-filename="Jodon.png"
   inkscape:export-xdpi="600"
   inkscape:export-ydpi="600"
   xmlns:inkscape="http://www.inkscape.org/namespaces/inkscape"
   xmlns:sodipodi="http://sodipodi.sourceforge.net/DTD/sodipodi-0.dtd"
   xmlns="http://www.w3.org/2000/svg"
   xmlns:svg="http://www.w3.org/2000/svg">
  <sodipodi:namedview
     id="namedview1"
     pagecolor="#ffffff"
     bordercolor="#000000"
     borderopacity="0.25"
     inkscape:showpageshadow="2"
     inkscape:pageopacity="0.0"
     inkscape:pagecheckerboard="0"
     inkscape:deskcolor="#d1d1d1"
     inkscape:document-units="mm">
    <inkscape:page
       x="0"
       y="0"
       width="207.69301"
       height="207.69273"
       id="page2"
       margin="0"
       bleed="0" />
  </sodipodi:namedview>
  <defs
     id="defs1" />
  <g
     inkscape:label="Layer 1"
     inkscape:groupmode="layer"
     id="layer1"
     transform="translate(-1.334979,-0.67359686)">
    <path
       id="path34"
       style="fill:#243a5e;stroke-width:0.401046"
       d="m 107.39297,0.69447215 c -2.7536,-0.0533014 -5.50957,-0.001635 -8.263264,0.12196452 C 93.59865,1.2093416 88.08204,1.9085304 82.660704,3.1435033 77.814763,4.2149147 73.035461,5.6407173 68.379247,7.4132076 62.836881,9.5168142 57.457941,12.095581 52.321025,15.127163 47.614422,17.915209 43.120157,21.085288 38.86697,24.585682 34.397796,28.332264 30.191927,32.425881 26.367159,36.89427 22.4051,41.508269 18.847969,46.503309 15.721194,51.778714 12.701199,56.926219 10.092849,62.339759 7.9779665,67.96573 5.9559489,73.372416 4.3490575,78.956944 3.2613875,84.65523 2.2774109,89.519065 1.722993,94.475606 1.4533989,99.437226 c -0.258358,5.411084 -0.091611,10.837714 0.4771204,16.222134 0.6399191,5.80767 1.7430829,11.56169 3.3418045,17.1637 1.3242126,4.73085 3.0165318,9.34895 4.9878272,13.82287 0.221217,0.49465 0.445847,0.98807 0.674215,1.47919 2.361298,5.07813 5.104792,9.96302 8.227179,14.56441 3.40486,5.03641 7.232487,9.75476 11.43141,14.07754 0.876152,0.90784 1.769265,1.79816 2.677347,2.67051 3.384863,3.25169 6.98405,6.25605 10.746462,9.00969 4.857099,3.52469 9.987413,6.62695 15.330343,9.26144 4.934966,2.40978 10.032146,4.44664 15.253261,6.06012 5.737293,1.75487 11.607307,3.01621 17.53935,3.77795 5.901132,0.7313 11.856972,0.99056 17.794972,0.7074 6.11957,-0.27053 12.21339,-1.11507 18.20383,-2.45587 5.80173,-1.32872 11.50842,-3.12966 17.02611,-5.44056 5.47513,-2.28996 10.77897,-5.03958 15.81236,-8.26327 5.12617,-3.24049 9.96372,-6.97793 14.46976,-11.11235 0.55406,-0.50849 1.10341,-1.02328 1.647,-1.54455 3.09533,-2.96834 6.017,-6.14232 8.72772,-9.49853 3.79,-4.65594 7.18774,-9.66774 10.1142,-14.96641 1.24906,-2.23339 2.41436,-4.51782 3.49302,-6.84654 1.39706,-3.01613 2.64888,-6.10638 3.75063,-9.2546 1.82467,-5.15217 3.18471,-10.47308 4.20531,-15.86211 0.98475,-5.65454 1.57158,-11.38825 1.63235,-17.13931 0.0731,-4.84735 -0.21979,-9.702442 -0.82348,-14.507821 -0.68453,-5.385445 -1.81198,-10.699311 -3.30083,-15.901137 -1.67253,-5.64895 -3.77621,-11.159387 -6.35186,-16.423143 -2.69043,-5.514648 -5.85734,-10.770021 -9.43803,-15.695257 -3.57886,-4.902409 -7.57178,-9.469017 -11.90268,-13.649204 -4.33301,-4.151922 -8.98996,-7.933453 -13.92923,-11.2587 -4.96639,-3.349707 -10.19964,-6.262755 -15.6338,-8.6847879 -2.89243,-1.3030337 -5.84117,-2.466872 -8.83406,-3.4901119 V 5.5583843 h -2.12998 C 134.65354,4.9169716 132.61612,4.3385276 130.56412,3.8235732 125.65937,2.5829416 120.66501,1.6960894 115.64163,1.201842 112.8979,0.90610881 110.14656,0.74778112 107.39297,0.69447215 Z M 85.058996,12.282971 h 8.693573 c 3.675211,0 6.258941,0.59778 7.752001,1.793354 1.55048,1.135796 2.3261,2.870135 2.3261,5.201507 v 84.914998 c 0,9.26571 -2.06699,16.49903 -6.201617,21.69978 -4.134608,5.14097 -9.791371,7.712 -16.969529,7.712 -6.316779,0 -11.657802,-1.82332 -16.022122,-5.46983 -4.306894,-3.70627 -6.460172,-7.80176 -6.460172,-12.28515 0,-1.6738 0.315736,-2.92835 0.947416,-3.76526 0.574252,-0.83691 1.349861,-1.25575 2.32609,-1.25575 0.516828,0 1.550322,0.23893 3.100804,0.71715 1.837608,0.59779 3.273125,0.89668 4.306779,0.89668 2.698989,0 5.082688,-1.16557 7.149998,-3.49693 2.067309,-2.39117 3.100804,-5.32008 3.100804,-8.78724 0,-4.005181 -1.263918,-7.29297 -3.79063,-9.863447 -2.526712,-2.630273 -5.741918,-3.945777 -9.646837,-3.945777 -4.766297,0 -8.786527,2.002268 -12.059767,6.007445 -3.273239,4.005178 -4.909768,9.356169 -4.909768,16.051389 0,9.0266 3.244621,16.67778 9.733675,22.95454 3.887832,3.72484 8.445872,6.334 13.673589,7.82714 H 17.372095 A 94.405631,94.405631 0 0 1 10.775324,104.51969 94.405631,94.405631 0 0 1 85.058996,12.282971 Z m 41.925244,0.383455 a 94.405631,94.405631 0 0 1 72.60253,91.853264 94.405631,94.405631 0 0 1 -6.59678,34.66988 H 95.548844 c 2.87737,-0.76322 5.609436,-1.81795 8.195956,-3.16423 5.97223,-3.16828 10.50823,-7.4127 13.6092,-12.733 3.10096,-5.38008 4.65121,-11.38787 4.65121,-18.0233 V 19.277832 c 0,-2.271593 0.66088,-4.005932 1.98165,-5.201507 0.74146,-0.643205 1.74069,-1.112731 2.99738,-1.409899 z M 67.624049,142.74798 c 2.508524,0 4.856093,0.66339 7.042667,1.99143 2.199991,1.31462 3.916629,3.15983 5.15077,5.53421 1.247555,2.36097 1.87141,5.02351 1.87141,7.98813 0,2.96462 -0.623855,5.64034 -1.87141,8.02814 -1.247556,2.3878 -2.964194,4.25228 -5.15077,5.59374 -2.173159,1.32805 -4.480228,1.9924 -6.921681,1.9924 -2.387794,0 -4.628011,-0.65021 -6.720684,-1.95142 -2.092674,-1.31462 -3.776863,-3.18619 -5.051247,-5.61423 -1.26097,-2.44144 -1.890924,-5.1445 -1.890924,-8.10912 0,-2.92437 0.61068,-5.56057 1.831405,-7.90812 1.234141,-2.36097 2.917355,-4.2052 5.050271,-5.53324 2.132918,-1.34147 4.352885,-2.01192 6.660193,-2.01192 z m 64.108001,0 c 2.50853,0 4.85609,0.66339 7.04266,1.99143 2.19999,1.31462 3.91761,3.15983 5.15175,5.53421 1.24755,2.36097 1.8714,5.02351 1.8714,7.98813 0,2.96462 -0.62385,5.64034 -1.8714,8.02814 -1.24755,2.3878 -2.96517,4.25228 -5.15175,5.59374 -2.17316,1.32805 -4.48023,1.9924 -6.92167,1.9924 -2.3878,0 -4.62801,-0.65021 -6.72068,-1.95142 -2.09269,-1.31462 -3.77589,-3.18619 -5.05029,-5.61423 -1.26095,-2.44144 -1.89189,-5.1445 -1.89189,-8.10912 0,-2.92437 0.61068,-5.56057 1.8314,-7.90812 1.23414,-2.36097 2.91736,-4.2052 5.05028,-5.53324 2.13291,-1.34147 4.35288,-2.01192 6.66019,-2.01192 z m -94.290591,0.62347 h 13.159389 v 1.50944 h -1.87141 c -0.737801,0 -1.267481,0.13369 -1.58943,0.40198 -0.308535,0.2683 -0.462486,0.65719 -0.462486,1.16694 v 19.29661 c 0,1.48902 -0.362553,2.83798 -1.086939,4.0453 -0.724388,1.19389 -1.783746,2.1459 -3.178862,2.85686 -1.395116,0.69757 -2.971954,1.04596 -4.729262,1.04596 -2.387794,0 -4.339385,-0.69679 -5.855232,-2.09191 -1.515846,-1.40854 -2.273402,-3.12615 -2.273402,-5.15174 0,-1.50244 0.381827,-2.70257 1.146458,-3.60135 0.764631,-0.89877 1.703463,-1.34843 2.816873,-1.34843 0.912191,0 1.663646,0.29474 2.253889,0.88498 0.590241,0.57682 0.884968,1.31511 0.884968,2.21387 0,0.77805 -0.241051,1.43532 -0.723976,1.9719 -0.482924,0.52318 -1.039931,0.78448 -1.670415,0.78448 -0.241461,0 -0.57669,-0.0668 -1.005956,-0.20099 -0.362193,-0.10732 -0.603245,-0.161 -0.723976,-0.161 -0.228048,0 -0.409324,0.0942 -0.543471,0.28199 -0.147556,0.18781 -0.221485,0.46934 -0.221485,0.84497 0,1.00608 0.503329,1.92466 1.509422,2.75638 1.019507,0.81829 2.267217,1.22744 3.74282,1.22744 1.676822,0 2.997483,-0.57629 3.963332,-1.72995 0.965849,-1.16706 1.448928,-2.79049 1.448928,-4.86976 v -19.05561 c 0,-0.52315 -0.181278,-0.91207 -0.543471,-1.16694 -0.348779,-0.26829 -0.952382,-0.40198 -1.810917,-0.40198 h -2.635389 z m 47.869269,0 H 100.684 c 2.28048,0 4.21889,0.40208 5.81524,1.20696 1.98535,1.01951 3.66954,2.71688 5.05124,5.09126 1.39511,2.37438 2.09192,5.18477 2.09192,8.4311 0,2.68291 -0.41525,5.09732 -1.24697,7.24367 -0.63047,1.64998 -1.6037,3.09214 -2.91834,4.32629 -1.30121,1.23414 -2.89025,2.15979 -4.76829,2.77687 -1.40852,0.45609 -3.28717,0.68396 -5.634718,0.68396 H 85.310728 v -1.50941 h 2.81785 c 0.710973,0 1.20015,-0.11346 1.468442,-0.3415 0.281706,-0.22805 0.422482,-0.58352 0.422482,-1.06645 v -23.96538 c 0,-0.41585 -0.147858,-0.74497 -0.442972,-0.98644 -0.29512,-0.25488 -0.704274,-0.38149 -1.227441,-0.38149 h -3.038361 z m 64.389982,0 h 7.10317 l 17.94914,23.3819 v -16.9227 c 0,-1.70364 -0.3889,-2.96453 -1.16695,-3.78282 -0.71097,-0.75122 -1.7713,-1.14011 -3.17983,-1.16694 v -1.50944 h 10.40301 v 1.50944 c -1.05976,0 -1.85073,0.14687 -2.37391,0.44198 -0.52315,0.29514 -0.97989,0.83189 -1.36891,1.60992 -0.38903,0.77806 -0.58347,1.62978 -0.58347,2.55539 v 23.64338 h -1.89093 l -18.57262,-24.32735 v 17.94914 c 0,1.62317 0.40915,2.83647 1.22744,3.64136 0.81829,0.79146 2.08625,1.20061 3.8033,1.22744 v 1.50941 h -11.34944 v -1.50941 c 1.42195,-0.0537 2.54914,-0.51649 3.38083,-1.38844 0.8317,-0.88536 1.24793,-1.96496 1.24793,-3.23936 V 146.8118 l -0.34246,-0.36199 c -0.67074,-0.72437 -1.14675,-1.15378 -1.42846,-1.28792 -0.389,-0.18781 -0.89234,-0.281 -1.50941,-0.281 h -1.34843 z m -81.754678,0.92595 c -2.615842,0 -4.735533,1.08571 -6.358696,3.25887 -1.623164,2.17316 -2.434395,5.71477 -2.434395,10.6245 0,5.32559 0.831481,9.00796 2.494888,11.04699 1.663406,2.03901 3.722348,3.05884 6.177215,3.05884 1.717065,0 3.226077,-0.46282 4.52729,-1.38843 1.301214,-0.92561 2.334223,-2.39412 3.098854,-4.40631 0.778045,-2.01218 1.166948,-4.65546 1.166948,-7.92861 0,-3.56827 -0.361578,-6.35135 -1.085965,-8.35013 -0.724386,-2.01218 -1.757395,-3.50192 -3.098852,-4.46776 -1.341457,-0.96585 -2.837295,-1.44796 -4.487287,-1.44796 z m 64.107998,0 c -2.61583,0 -4.73554,1.08571 -6.35869,3.25887 -1.62318,2.17316 -2.4344,5.71477 -2.4344,10.6245 0,5.32559 0.83148,9.00796 2.49489,11.04699 1.66341,2.03901 3.72234,3.05884 6.17721,3.05884 1.71707,0 3.22707,-0.46282 4.52828,-1.38843 1.30121,-0.92561 2.33421,-2.39412 3.09884,-4.40631 0.77806,-2.01218 1.16695,-4.65546 1.16695,-7.92861 0,-3.56827 -0.36255,-6.35135 -1.08695,-8.35013 -0.72437,-2.01218 -1.75738,-3.50192 -3.09884,-4.46776 -1.34145,-0.96585 -2.83729,-1.44796 -4.48729,-1.44796 z m -35.957804,0.58349 c -0.603667,0 -1.052339,0.12661 -1.34747,0.38149 -0.281707,0.25488 -0.423447,0.63769 -0.423447,1.14744 v 23.74389 c 0,0.48292 0.168098,0.85157 0.503465,1.10645 0.335367,0.24145 0.905539,0.36199 1.710422,0.36199 h 2.534886 c 2.267058,0 4.253048,-0.58335 5.956708,-1.75043 1.11341,-0.77804 1.95807,-1.87082 2.53489,-3.27935 0.79146,-1.90488 1.18743,-4.534 1.18743,-7.88765 0,-4.96337 -0.8649,-8.59916 -2.59538,-10.90647 -1.47559,-1.94512 -3.70264,-2.91736 -6.680687,-2.91736 z M 47.737142,179.43758 H 162.62495 a 94.405631,94.405631 0 0 1 -57.4439,19.48783 94.405631,94.405631 0 0 1 -57.443908,-19.48783 z" />
  </g>
</svg>
